<svg xmlns="http://www.w3.org/2000/svg" height="48" viewBox="0 -960 960 960" width="48"><path d="M480.174-116q-74.814 0-141.712-28.411-66.899-28.412-116.234-77.688-49.336-49.277-77.782-116.095Q116-405.012 116-479.826q0-76.07 28.484-142.694 28.484-66.623 77.885-116.126 49.401-49.502 116.149-77.428Q405.266-844 480-844q65.288 0 122.653 20.292Q660.017-803.417 707-766l-24 26q-42.081-32.647-93.316-50.823Q538.448-809 480-809q-137 0-233 96t-96 233q0 137 96 233t233 96q137 0 233-96t96-233q0-29.211-4.5-55.215Q800-561.219 791-587l27-28q11.957 31.63 18.978 65.328Q844-515.973 844-479.822q0 75.032-27.891 141.542-27.892 66.51-77.335 115.911-49.443 49.401-115.987 77.885Q556.244-116 480.174-116ZM421-323 279-465l25-26 117 117 397-397 26 25-423 423Z"/></svg>